<?xml version="1.0" encoding="UTF-8"?>
<svg width="400px" height="157px" viewBox="0 0 400 157" version="1.1" xmlns="http://www.w3.org/2000/svg" xmlns:xlink="http://www.w3.org/1999/xlink">
    <title>Logo</title>
    <g id="Logo" stroke="none" stroke-width="1" fill="none" fill-rule="evenodd">
        <g id="streamline-icon-button-loop@140x140" transform="translate(97.000000, 11.000000)" stroke="#013E45" stroke-linecap="round" stroke-linejoin="round" stroke-width="5.83333333">
            <path d="M112.5,72 C112.5,72 130.5,99 157.5,99 C184.838095,99 207,76.8380951 207,49.5 C207,22.1619049 184.838095,0 157.5,0 C112.5,0 94.5,99 49.5,99 C22.1619049,99 0,76.8380951 0,49.5 C0,22.1619049 22.1619049,0 49.5,0 C76.5,0 90,31.5 90,31.5" id="Path"></path>
        </g>
        <path d="M143.113633,115 L143.113633,98.2727432 L141.088066,98.2727432 L141.088066,115 L143.113633,115 Z M152.690337,115 L152.690337,101.86649 L152.853689,101.86649 L161.968737,115 L163.928963,115 L163.928963,98.2727432 L161.936067,98.2727432 L161.936067,111.438924 L161.772715,111.438924 L152.624996,98.2727432 L150.664771,98.2727432 L150.664771,115 L152.690337,115 Z M173.505678,115 L173.505678,107.518473 L180.758512,107.518473 L180.758512,105.7216 L173.505678,105.7216 L173.505678,100.069617 L181.509932,100.069617 L181.509932,98.2727432 L171.480112,98.2727432 L171.480112,115 L173.505678,115 Z M190.498576,115 L190.498576,98.2727432 L188.473009,98.2727432 L188.473009,115 L190.498576,115 Z M200.07528,115 L200.07528,101.86649 L200.238632,101.86649 L209.35368,115 L211.313906,115 L211.313906,98.2727432 L209.32101,98.2727432 L209.32101,111.438924 L209.157658,111.438924 L200.009939,98.2727432 L198.049714,98.2727432 L198.049714,115 L200.07528,115 Z M220.890621,115 L220.890621,98.2727432 L218.865055,98.2727432 L218.865055,115 L220.890621,115 Z M234.812492,115 L234.812492,100.069617 L240.07243,100.069617 L240.07243,98.2727432 L227.526988,98.2727432 L227.526988,100.069617 L232.786926,100.069617 L232.786926,115 L234.812492,115 Z M256.934647,115 L256.934647,113.203127 L248.734371,113.203127 L248.734371,107.518473 L256.281239,107.518473 L256.281239,105.7216 L248.734371,105.7216 L248.734371,100.069617 L256.803966,100.069617 L256.803966,98.2727432 L246.708805,98.2727432 L246.708805,115 L256.934647,115 Z M157.233658,143 C162.330244,143 165.205241,139.830969 165.205241,134.603701 C165.205241,129.409104 162.330244,126.272743 157.462351,126.272743 L152.071731,126.272743 L152.071731,143 L157.233658,143 Z M157.102976,141.203127 L154.097297,141.203127 L154.097297,128.069617 L157.331669,128.069617 C161.25212,128.069617 163.245016,130.552569 163.245016,134.603701 C163.245016,138.687504 161.25212,141.203127 157.102976,141.203127 Z M174.128547,143 L174.128547,136.465915 L177.787635,136.465915 C177.934652,136.465915 178.073501,136.465915 178.21235,136.457748 L181.740756,143 L184.093026,143 L180.311425,136.090205 C182.44317,135.363289 183.439618,133.623588 183.439618,131.402 C183.439618,128.445326 181.675415,126.272743 177.754964,126.272743 L172.102981,126.272743 L172.102981,143 L174.128547,143 Z M177.722294,134.636372 L174.128547,134.636372 L174.128547,128.069617 L177.689623,128.069617 C180.401269,128.069617 181.446722,129.392769 181.446722,131.402 C181.446722,133.411231 180.401269,134.636372 177.722294,134.636372 Z M196.8061,143.294034 C200.742886,143.294034 203.307514,140.778411 203.307514,137.348017 L203.307514,126.272743 L201.281948,126.272743 L201.281948,137.184665 C201.281948,139.634946 199.599421,141.399149 196.8061,141.399149 C194.012779,141.399149 192.330252,139.634946 192.330252,137.184665 L192.330252,126.272743 L190.304686,126.272743 L190.304686,137.348017 C190.304686,140.778411 192.869314,143.294034 196.8061,143.294034 Z M212.753547,143 L212.753547,130.291205 L212.9169,130.291205 L218.144167,143 L219.973711,143 L225.200979,130.291205 L225.364331,130.291205 L225.364331,143 L227.259215,143 L227.259215,126.272743 L224.841604,126.272743 L219.15695,140.157673 L218.960928,140.157673 L213.276274,126.272743 L210.858663,126.272743 L210.858663,143 L212.753547,143 Z M240.102976,143.294034 C243.958086,143.294034 246.147004,141.170456 246.147004,138.458811 C246.147004,135.322451 243.173996,134.309667 241.442463,133.852281 L239.743601,133.394896 C238.502125,133.068191 236.509229,132.414783 236.509229,130.61791 C236.509229,129.017059 237.979398,127.840924 240.200987,127.840924 C242.226553,127.840924 243.762063,128.804701 243.958086,130.454557 L245.918311,130.454557 C245.828468,127.930767 243.5007,126.04405 240.266328,126.04405 C237.064627,126.04405 234.549004,127.906264 234.549004,130.715921 C234.549004,132.97018 236.182525,134.309667 238.796159,135.061087 L240.854396,135.649155 C242.618599,136.139211 244.186779,136.759949 244.186779,138.426141 C244.186779,140.255684 242.422576,141.46449 240.102976,141.46449 C238.11008,141.46449 236.345877,140.582389 236.182525,138.687504 L234.091618,138.687504 C234.287641,141.43182 236.509229,143.294034 240.102976,143.294034 Z" id="INFINITEDRUMS" fill="#008C9E" fill-rule="nonzero"></path>
    </g>
</svg>