<svg xmlns="http://www.w3.org/2000/svg" version="1.1" xmlns:xlink="http://www.w3.org/1999/xlink" xmlns:svgjs="http://svgjs.com/svgjs" viewBox="0 0 140 140" width="140" height="140"><g transform="matrix(5.833333333333333,0,0,5.833333333333333,0,0)"><path d="M7.5,15.5v-9a1.5,1.5,0,0,1,3,0v5" fill="none" stroke="#008c9e" stroke-linecap="round" stroke-linejoin="round"></path><path d="M10.5,6.5v-1a1.5,1.5,0,0,1,3,0v1" fill="none" stroke="#008c9e" stroke-linecap="round" stroke-linejoin="round"></path><path d="M13.5,11.5v-5a1.5,1.5,0,0,1,3,0v2" fill="none" stroke="#008c9e" stroke-linecap="round" stroke-linejoin="round"></path><path d="M16.5,12.5v-4a1.5,1.5,0,0,1,3,0v9a5,5,0,0,1-5,5H11.165c-3.665,0-6.665-4-6.665-6v-4A1.5,1.5,0,0,1,6,11H7.5" fill="none" stroke="#008c9e" stroke-linecap="round" stroke-linejoin="round"></path></g></svg>