<svg xmlns="http://www.w3.org/2000/svg" version="1.1" xmlns:xlink="http://www.w3.org/1999/xlink" xmlns:svgjs="http://svgjs.com/svgjs" viewBox="0 0 140 140" width="140" height="140"><g transform="matrix(5.833333333333333,0,0,5.833333333333333,0,0)"><path d="M7.5,12.5V9a1.5,1.5,0,0,1,3,0v1" fill="none" stroke="#008c9e" stroke-linecap="round" stroke-linejoin="round"></path><path d="M13.5,10V9a1.5,1.5,0,0,1,3,0v1" fill="none" stroke="#008c9e" stroke-linecap="round" stroke-linejoin="round"></path><path d="M13.5,9V8h0a1.5,1.5,0,0,0-3,0h0V9" fill="none" stroke="#008c9e" stroke-linecap="round" stroke-linejoin="round"></path><path d="M16.5,11.5V10a1.5,1.5,0,1,1,3,0v5.5a5,5,0,0,1-5,5H11.165c-5.665,0-6.665-5-6.665-7v-1c0-.972.5-2,1.5-2H7.5" fill="none" stroke="#008c9e" stroke-linecap="round" stroke-linejoin="round"></path></g></svg>